# xmcd
#
# Track frame offsets:
# 150
# 17717
# 30467
# 45606
# 72259
# 95516
# 115923
# 139824
# 166357
# 183623
#
# Disc length: 2628 seconds
#
#
# Revision: 1
# Processed by: cddbd v1.5.2PL0 Copyright (c) Steve Scherf et al.
# Submitted via: FreeRIP 2.941 
#
DISCID=850a420a
DTITLE=Max d'Avola - Audio CD
DYEAR=2008
DGENRE=Jazz
TTITLE0=Micca's dream
TTITLE1=Pasta e ceci
TTITLE2=Silver Style
TTITLE3=Puttin' on the Ritz
TTITLE4=Amorevole
TTITLE5=Groovin' High
TTITLE6=In the Still of the night
TTITLE7=Sonia
TTITLE8=T'ho voluto bene
TTITLE9=Hanging Out Bottofoga Bay
EXTD=
EXTT0=
EXTT1=
EXTT2=
EXTT3=
EXTT4=
EXTT5=
EXTT6=
EXTT7=
EXTT8=
EXTT9=
PLAYORDER=
